# Blender 5.0.1
# www.blender.org
o Broder_Up
v 1.076309 4.543570 -5.410971
v 0.000000 4.543570 -5.516979
v 2.111257 4.543570 -5.097023
v 3.065069 4.543570 -4.587200
v 3.901093 4.543570 -3.901093
v 4.587200 4.543570 -3.065069
v 5.097023 4.543570 -2.111257
v 5.410971 4.543570 -1.076309
v 5.516979 4.543570 0.000000
v 5.410971 4.543570 1.076309
v 5.097023 4.543570 2.111257
v 4.587200 4.543570 3.065069
v 3.901093 4.543570 3.901093
v 3.065069 4.543570 4.587200
v 2.111257 4.543570 5.097023
v 1.076309 4.543570 5.410971
v 0.000000 4.543570 5.516979
v -1.076309 4.543570 5.410971
v -2.111257 4.543570 5.097023
v -3.065069 4.543570 4.587200
v -3.901093 4.543570 3.901093
v -4.587200 4.543570 3.065069
v -5.097023 4.543570 2.111257
v -5.410971 4.543570 1.076309
v -5.516979 4.543570 0.000000
v -5.410971 4.543570 -1.076309
v -5.097023 4.543570 -2.111257
v -4.587200 4.543570 -3.065069
v -3.901093 4.543570 -3.901093
v -3.065069 4.543570 -4.587200
v -2.111257 4.543570 -5.097023
v -1.076309 4.543570 -5.410971
v 1.076309 4.543570 -5.410971
v 0.000000 4.543570 -5.516979
v 2.111257 4.543570 -5.097023
v 3.065069 4.543570 -4.587200
v 3.901093 4.543570 -3.901093
v 4.587200 4.543570 -3.065069
v 5.097023 4.543570 -2.111257
v 5.410971 4.543570 -1.076309
v 5.516979 4.543570 0.000000
v 5.410971 4.543570 1.076309
v 5.097023 4.543570 2.111257
v 4.587200 4.543570 3.065069
v 3.901093 4.543570 3.901093
v 3.065069 4.543570 4.587200
v 2.111257 4.543570 5.097023
v 1.076309 4.543570 5.410971
v 0.000000 4.543570 5.516979
v -1.076309 4.543570 5.410971
v -2.111257 4.543570 5.097023
v -3.065069 4.543570 4.587200
v -3.901093 4.543570 3.901093
v -4.587200 4.543570 3.065069
v -5.097023 4.543570 2.111257
v -5.410971 4.543570 1.076309
v -5.516979 4.543570 0.000000
v -5.410971 4.543570 -1.076309
v -5.097023 4.543570 -2.111257
v -4.587200 4.543570 -3.065069
v -3.901093 4.543570 -3.901093
v -3.065069 4.543570 -4.587200
v -2.111257 4.543570 -5.097023
v -1.076309 4.543570 -5.410971
v 1.076309 9.024458 -5.410971
v 0.000000 9.024458 -5.516979
v 2.111257 9.024458 -5.097023
v 3.065069 9.024458 -4.587200
v 3.901093 9.024458 -3.901093
v 4.587200 9.024458 -3.065069
v 5.097023 9.024458 -2.111257
v 5.410971 9.024458 -1.076309
v 5.516979 9.024458 0.000000
v 5.410971 9.024458 1.076309
v 5.097023 9.024458 2.111257
v 4.587200 9.024458 3.065069
v 3.901093 9.024458 3.901093
v 3.065069 9.024458 4.587200
v 2.111257 9.024458 5.097023
v 1.076309 9.024458 5.410971
v 0.000000 9.024458 5.516979
v -1.076309 9.024458 5.410971
v -2.111257 9.024458 5.097023
v -3.065069 9.024458 4.587200
v -3.901093 9.024458 3.901093
v -4.587200 9.024458 3.065069
v -5.097023 9.024458 2.111257
v -5.410971 9.024458 1.076309
v -5.516979 9.024458 0.000000
v -5.410971 9.024458 -1.076309
v -5.097023 9.024458 -2.111257
v -4.587200 9.024458 -3.065069
v -3.901093 9.024458 -3.901093
v -3.065069 9.024458 -4.587200
v -2.111257 9.024458 -5.097023
v -1.076309 9.024458 -5.410971
v 1.076309 4.543570 -5.410971
v 0.000000 4.543570 -5.516979
v 2.111257 4.543570 -5.097023
v 3.065069 4.543570 -4.587200
v 3.901093 4.543570 -3.901093
v 4.587200 4.543570 -3.065069
v 5.097023 4.543570 -2.111257
v 5.410971 4.543570 -1.076309
v 5.516979 4.543570 0.000000
v 5.410971 4.543570 1.076309
v 5.097023 4.543570 2.111257
v 4.587200 4.543570 3.065069
v 3.901093 4.543570 3.901093
v 3.065069 4.543570 4.587200
v 2.111257 4.543570 5.097023
v 1.076309 4.543570 5.410971
v 0.000000 4.543570 5.516979
v -1.076309 4.543570 5.410971
v -2.111257 4.543570 5.097023
v -3.065069 4.543570 4.587200
v -3.901093 4.543570 3.901093
v -4.587200 4.543570 3.065069
v -5.097023 4.543570 2.111257
v -5.410971 4.543570 1.076309
v -5.516979 4.543570 0.000000
v -5.410971 4.543570 -1.076309
v -5.097023 4.543570 -2.111257
v -4.587200 4.543570 -3.065069
v -3.901093 4.543570 -3.901093
v -3.065069 4.543570 -4.587200
v -2.111257 4.543570 -5.097023
v -1.076309 4.543570 -5.410971
v 1.076309 4.543570 -5.410971
v 0.000000 4.543570 -5.516979
v 2.111257 4.543570 -5.097023
v 3.065069 4.543570 -4.587200
v 3.901093 4.543570 -3.901093
v 4.587200 4.543570 -3.065069
v 5.097023 4.543570 -2.111257
v 5.410971 4.543570 -1.076309
v 5.516979 4.543570 0.000000
v 5.410971 4.543570 1.076309
v 5.097023 4.543570 2.111257
v 4.587200 4.543570 3.065069
v 3.901093 4.543570 3.901093
v 3.065069 4.543570 4.587200
v 2.111257 4.543570 5.097023
v 1.076309 4.543570 5.410971
v 0.000000 4.543570 5.516979
v -1.076309 4.543570 5.410971
v -2.111257 4.543570 5.097023
v -3.065069 4.543570 4.587200
v -3.901093 4.543570 3.901093
v -4.587200 4.543570 3.065069
v -5.097023 4.543570 2.111257
v -5.410971 4.543570 1.076309
v -5.516979 4.543570 0.000000
v -5.410971 4.543570 -1.076309
v -5.097023 4.543570 -2.111257
v -4.587200 4.543570 -3.065069
v -3.901093 4.543570 -3.901093
v -3.065069 4.543570 -4.587200
v -2.111257 4.543570 -5.097023
v -1.076309 4.543570 -5.410971
v 0.780932 -0.031226 -3.926010
v -0.000000 -0.031226 -4.002925
v 1.531853 -0.031226 -3.698220
v 2.223906 -0.031226 -3.328310
v 2.830495 -0.031226 -2.830495
v 3.328310 -0.031226 -2.223906
v 3.698220 -0.031226 -1.531853
v 3.926010 -0.031226 -0.780932
v 4.002925 -0.031226 0.000000
v 3.926010 -0.031226 0.780932
v 3.698220 -0.031226 1.531853
v 3.328310 -0.031226 2.223906
v 2.830495 -0.031226 2.830495
v 2.223906 -0.031226 3.328310
v 1.531853 -0.031226 3.698220
v 0.780932 -0.031226 3.926010
v -0.000000 -0.031226 4.002925
v -0.780932 -0.031226 3.926010
v -1.531853 -0.031226 3.698220
v -2.223906 -0.031226 3.328310
v -2.830495 -0.031226 2.830495
v -3.328310 -0.031226 2.223906
v -3.698220 -0.031226 1.531853
v -3.926010 -0.031226 0.780932
v -4.002925 -0.031226 0.000000
v -3.926010 -0.031226 -0.780932
v -3.698220 -0.031226 -1.531853
v -3.328310 -0.031226 -2.223906
v -2.830495 -0.031226 -2.830495
v -2.223906 -0.031226 -3.328310
v -1.531853 -0.031226 -3.698220
v -0.780932 -0.031226 -3.926010
v 0.780932 -0.031226 -3.926010
v -0.000000 -0.031226 -4.002925
v 1.531853 -0.031226 -3.698220
v 2.223906 -0.031226 -3.328310
v 2.830495 -0.031226 -2.830495
v 3.328310 -0.031226 -2.223906
v 3.698220 -0.031226 -1.531853
v 3.926010 -0.031226 -0.780932
v 4.002925 -0.031226 0.000000
v 3.926010 -0.031226 0.780932
v 3.698220 -0.031226 1.531853
v 3.328310 -0.031226 2.223906
v 2.830495 -0.031226 2.830495
v 2.223906 -0.031226 3.328310
v 1.531853 -0.031226 3.698220
v 0.780932 -0.031226 3.926010
v -0.000000 -0.031226 4.002925
v -0.780932 -0.031226 3.926010
v -1.531853 -0.031226 3.698220
v -2.223906 -0.031226 3.328310
v -2.830495 -0.031226 2.830495
v -3.328310 -0.031226 2.223906
v -3.698220 -0.031226 1.531853
v -3.926010 -0.031226 0.780932
v -4.002925 -0.031226 0.000000
v -3.926010 -0.031226 -0.780932
v -3.698220 -0.031226 -1.531853
v -3.328310 -0.031226 -2.223906
v -2.830495 -0.031226 -2.830495
v -2.223906 -0.031226 -3.328310
v -1.531853 -0.031226 -3.698220
v -0.780932 -0.031226 -3.926010
vn -0.0000 1.0000 -0.0000
vn 0.9569 -0.0000 0.2903
vn -0.9952 -0.0000 0.0980
vn 0.8819 -0.0000 0.4714
vn -0.9952 -0.0000 -0.0980
vn 0.7730 -0.0000 0.6344
vn -0.9569 -0.0000 -0.2903
vn 0.6344 -0.0000 0.7730
vn -0.8819 -0.0000 -0.4714
vn 0.4714 -0.0000 0.8819
vn 0.0980 -0.0000 -0.9952
vn -0.7730 -0.0000 -0.6344
vn 0.2903 -0.0000 0.9569
vn 0.2903 -0.0000 -0.9569
vn -0.6344 -0.0000 -0.7730
vn 0.0980 -0.0000 0.9952
vn 0.4714 -0.0000 -0.8819
vn -0.4714 -0.0000 -0.8819
vn -0.0980 -0.0000 0.9952
vn 0.6344 -0.0000 -0.7730
vn -0.2903 -0.0000 -0.9569
vn -0.2903 -0.0000 0.9569
vn 0.7730 -0.0000 -0.6344
vn -0.0980 -0.0000 -0.9952
vn -0.4714 -0.0000 0.8819
vn 0.8819 -0.0000 -0.4714
vn -0.6344 -0.0000 0.7730
vn 0.9569 -0.0000 -0.2903
vn -0.7730 -0.0000 0.6344
vn 0.9952 -0.0000 -0.0980
vn -0.8819 -0.0000 0.4714
vn 0.9952 -0.0000 0.0980
vn -0.9569 -0.0000 0.2903
vn 0.2757 -0.3128 0.9089
vn -0.0931 -0.3128 -0.9452
vn -0.0931 -0.3128 0.9452
vn -0.9452 -0.3128 0.0931
vn -0.9089 -0.3128 -0.2757
vn 0.2757 -0.3128 -0.9089
vn 0.6026 -0.3128 -0.7342
vn 0.8377 -0.3128 0.4477
vn 0.6026 -0.3128 0.7342
vn -0.6026 -0.3128 0.7342
vn -0.8377 -0.3128 0.4477
vn -0.6026 -0.3128 -0.7342
vn -0.2757 -0.3128 -0.9089
vn 0.9089 -0.3128 -0.2757
vn 0.9452 -0.3128 0.0931
vn 0.0931 -0.3128 0.9452
vn -0.2757 -0.3128 0.9089
vn -0.9452 -0.3128 -0.0931
vn -0.8377 -0.3128 -0.4477
vn 0.4477 -0.3128 -0.8377
vn 0.9089 -0.3128 0.2757
vn 0.7342 -0.3128 -0.6026
vn 0.7342 -0.3128 0.6026
vn -0.4477 -0.3128 0.8377
vn 0.4477 -0.3128 0.8377
vn -0.7342 -0.3128 0.6026
vn -0.7342 -0.3128 -0.6026
vn -0.9089 -0.3128 0.2757
vn -0.4477 -0.3128 -0.8377
vn 0.8377 -0.3128 -0.4477
vn 0.0931 -0.3128 -0.9452
vn 0.9452 -0.3128 -0.0931
vt 0.718750 1.000000
vt 0.687500 1.000000
vt 0.437500 1.000000
vt 0.406250 1.000000
vt 0.156250 1.000000
vt 0.125000 1.000000
vt 0.843750 1.000000
vt 0.812500 1.000000
vt 0.562500 1.000000
vt 0.531250 1.000000
vt 0.281250 1.000000
vt 0.250000 1.000000
vt 0.968750 1.000000
vt 0.937500 1.000000
vt 0.656250 1.000000
vt 0.375000 1.000000
vt 0.093750 1.000000
vt 0.781250 1.000000
vt 0.500000 1.000000
vt 0.218750 1.000000
vt 0.906250 1.000000
vt 0.625000 1.000000
vt 0.343750 1.000000
vt 0.062500 1.000000
vt 0.750000 1.000000
vt 0.468750 1.000000
vt 0.187500 1.000000
vt 0.875000 1.000000
vt 0.593750 1.000000
vt 0.312500 1.000000
vt 0.031250 1.000000
vt 1.000000 1.000000
vt 0.000000 1.000000
s 0
f 10/1/1 42/1/1 43/2/1
f 19/3/1 51/3/1 52/4/1
f 28/5/1 60/5/1 61/6/1
f 6/7/1 38/7/1 39/8/1
f 15/9/1 47/9/1 48/10/1
f 24/11/1 56/11/1 57/12/1
f 1/13/1 33/13/1 35/14/1
f 11/2/1 43/2/1 44/15/1
f 20/4/1 52/4/1 53/16/1
f 29/6/1 61/6/1 62/17/1
f 7/8/1 39/8/1 40/18/1
f 16/10/1 48/10/1 49/19/1
f 25/12/1 57/12/1 58/20/1
f 3/14/1 35/14/1 36/21/1
f 12/15/1 44/15/1 45/22/1
f 21/16/1 53/16/1 54/23/1
f 30/17/1 62/17/1 63/24/1
f 8/18/1 40/18/1 41/25/1
f 17/19/1 49/19/1 50/26/1
f 26/20/1 58/20/1 59/27/1
f 4/21/1 36/21/1 37/28/1
f 13/22/1 45/22/1 46/29/1
f 22/23/1 54/23/1 55/30/1
f 31/24/1 63/24/1 64/31/1
f 9/25/1 41/25/1 42/1/1
f 18/26/1 50/26/1 51/3/1
f 27/27/1 59/27/1 60/5/1
f 5/28/1 37/28/1 38/7/1
f 14/29/1 46/29/1 47/9/1
f 23/30/1 55/30/1 56/11/1
f 2/32/1 34/32/1 33/13/1
f 32/31/1 64/31/1 34/33/1
f 43/2/2 42/1/2 74/1/2
f 57/12/3 56/11/3 88/11/3
f 44/15/4 43/2/4 75/2/4
f 58/20/5 57/12/5 89/12/5
f 45/22/6 44/15/6 76/15/6
f 59/27/7 58/20/7 90/20/7
f 46/29/8 45/22/8 77/22/8
f 60/5/9 59/27/9 91/27/9
f 47/9/10 46/29/10 78/29/10
f 33/13/11 34/32/11 66/32/11
f 61/6/12 60/5/12 92/5/12
f 48/10/13 47/9/13 79/9/13
f 35/14/14 33/13/14 65/13/14
f 62/17/15 61/6/15 93/6/15
f 49/19/16 48/10/16 80/10/16
f 36/21/17 35/14/17 67/14/17
f 63/24/18 62/17/18 94/17/18
f 50/26/19 49/19/19 81/19/19
f 37/28/20 36/21/20 68/21/20
f 64/31/21 63/24/21 95/24/21
f 51/3/22 50/26/22 82/26/22
f 38/7/23 37/28/23 69/28/23
f 34/33/24 64/31/24 96/31/24
f 52/4/25 51/3/25 83/3/25
f 39/8/26 38/7/26 70/7/26
f 53/16/27 52/4/27 84/4/27
f 40/18/28 39/8/28 71/8/28
f 54/23/29 53/16/29 85/16/29
f 41/25/30 40/18/30 72/18/30
f 55/30/31 54/23/31 86/23/31
f 42/1/32 41/25/32 73/25/32
f 56/11/33 55/30/33 87/30/33
f 10/1/1 43/2/1 11/2/1
f 19/3/1 52/4/1 20/4/1
f 28/5/1 61/6/1 29/6/1
f 6/7/1 39/8/1 7/8/1
f 15/9/1 48/10/1 16/10/1
f 24/11/1 57/12/1 25/12/1
f 1/13/1 35/14/1 3/14/1
f 11/2/1 44/15/1 12/15/1
f 20/4/1 53/16/1 21/16/1
f 29/6/1 62/17/1 30/17/1
f 7/8/1 40/18/1 8/18/1
f 16/10/1 49/19/1 17/19/1
f 25/12/1 58/20/1 26/20/1
f 3/14/1 36/21/1 4/21/1
f 12/15/1 45/22/1 13/22/1
f 21/16/1 54/23/1 22/23/1
f 30/17/1 63/24/1 31/24/1
f 8/18/1 41/25/1 9/25/1
f 17/19/1 50/26/1 18/26/1
f 26/20/1 59/27/1 27/27/1
f 4/21/1 37/28/1 5/28/1
f 13/22/1 46/29/1 14/29/1
f 22/23/1 55/30/1 23/30/1
f 31/24/1 64/31/1 32/31/1
f 9/25/1 42/1/1 10/1/1
f 18/26/1 51/3/1 19/3/1
f 27/27/1 60/5/1 28/5/1
f 5/28/1 38/7/1 6/7/1
f 14/29/1 47/9/1 15/9/1
f 23/30/1 56/11/1 24/11/1
f 2/32/1 33/13/1 1/13/1
f 32/31/1 34/33/1 2/33/1
f 43/2/2 74/1/2 75/2/2
f 57/12/3 88/11/3 89/12/3
f 44/15/4 75/2/4 76/15/4
f 58/20/5 89/12/5 90/20/5
f 45/22/6 76/15/6 77/22/6
f 59/27/7 90/20/7 91/27/7
f 46/29/8 77/22/8 78/29/8
f 60/5/9 91/27/9 92/5/9
f 47/9/10 78/29/10 79/9/10
f 33/13/11 66/32/11 65/13/11
f 61/6/12 92/5/12 93/6/12
f 48/10/13 79/9/13 80/10/13
f 35/14/14 65/13/14 67/14/14
f 62/17/15 93/6/15 94/17/15
f 49/19/16 80/10/16 81/19/16
f 36/21/17 67/14/17 68/21/17
f 63/24/18 94/17/18 95/24/18
f 50/26/19 81/19/19 82/26/19
f 37/28/20 68/21/20 69/28/20
f 64/31/21 95/24/21 96/31/21
f 51/3/22 82/26/22 83/3/22
f 38/7/23 69/28/23 70/7/23
f 34/33/24 96/31/24 66/33/24
f 52/4/25 83/3/25 84/4/25
f 39/8/26 70/7/26 71/8/26
f 53/16/27 84/4/27 85/16/27
f 40/18/28 71/8/28 72/18/28
f 54/23/29 85/16/29 86/23/29
f 41/25/30 72/18/30 73/25/30
f 55/30/31 86/23/31 87/30/31
f 42/1/32 73/25/32 74/1/32
f 56/11/33 87/30/33 88/11/33
f 19/3/1 148/4/1 115/3/1
f 14/29/1 143/9/1 110/29/1
f 21/16/1 150/23/1 117/16/1
f 28/5/1 157/6/1 124/5/1
f 23/30/1 152/11/1 119/30/1
f 30/17/1 159/24/1 126/17/1
f 6/7/1 135/8/1 102/7/1
f 2/32/1 129/13/1 98/32/1
f 8/18/1 137/25/1 104/18/1
f 15/9/1 144/10/1 111/9/1
f 32/31/1 130/33/1 128/31/1
f 17/19/1 146/26/1 113/19/1
f 24/11/1 153/12/1 120/11/1
f 26/20/1 155/27/1 122/20/1
f 1/13/1 131/14/1 97/13/1
f 4/21/1 133/28/1 100/21/1
f 11/2/1 140/15/1 107/2/1
f 13/22/1 142/29/1 109/22/1
f 20/4/1 149/16/1 116/4/1
f 22/23/1 151/30/1 118/23/1
f 29/6/1 158/17/1 125/6/1
f 31/24/1 160/31/1 127/24/1
f 7/8/1 136/18/1 103/8/1
f 9/25/1 138/1/1 105/25/1
f 16/10/1 145/19/1 112/10/1
f 18/26/1 147/3/1 114/26/1
f 25/12/1 154/20/1 121/12/1
f 27/27/1 156/5/1 123/27/1
f 3/14/1 132/21/1 99/14/1
f 10/1/1 139/2/1 106/1/1
f 5/28/1 134/7/1 101/28/1
f 12/15/1 141/22/1 108/15/1
f 144/10/34 175/9/34 111/9/34
f 130/33/35 192/31/35 128/31/35
f 146/26/36 177/19/36 113/19/36
f 153/12/37 184/11/37 120/11/37
f 122/20/38 219/27/38 186/20/38
f 97/13/39 195/14/39 161/13/39
f 100/21/40 197/28/40 164/21/40
f 140/15/41 171/2/41 107/2/41
f 142/29/42 173/22/42 109/22/42
f 116/4/43 213/16/43 180/4/43
f 118/23/44 215/30/44 182/23/44
f 158/17/45 189/6/45 125/6/45
f 160/31/46 191/24/46 127/24/46
f 136/18/47 167/8/47 103/8/47
f 138/1/48 169/25/48 105/25/48
f 145/19/49 176/10/49 112/10/49
f 147/3/50 178/26/50 114/26/50
f 154/20/51 185/12/51 121/12/51
f 156/5/52 187/27/52 123/27/52
f 132/21/53 163/14/53 99/14/53
f 139/2/54 170/1/54 106/1/54
f 134/7/55 165/28/55 101/28/55
f 108/15/56 205/22/56 172/15/56
f 148/4/57 179/3/57 115/3/57
f 110/29/58 207/9/58 174/29/58
f 150/23/59 181/16/59 117/16/59
f 124/5/60 221/6/60 188/5/60
f 152/11/61 183/30/61 119/30/61
f 126/17/62 223/24/62 190/17/62
f 102/7/63 199/8/63 166/7/63
f 129/13/64 162/32/64 98/32/64
f 137/25/65 168/18/65 104/18/65
f 19/3/1 52/4/1 148/4/1
f 14/29/1 47/9/1 143/9/1
f 21/16/1 54/23/1 150/23/1
f 28/5/1 61/6/1 157/6/1
f 23/30/1 56/11/1 152/11/1
f 30/17/1 63/24/1 159/24/1
f 6/7/1 39/8/1 135/8/1
f 2/32/1 33/13/1 129/13/1
f 8/18/1 41/25/1 137/25/1
f 15/9/1 48/10/1 144/10/1
f 32/31/1 34/33/1 130/33/1
f 17/19/1 50/26/1 146/26/1
f 24/11/1 57/12/1 153/12/1
f 26/20/1 59/27/1 155/27/1
f 1/13/1 35/14/1 131/14/1
f 4/21/1 37/28/1 133/28/1
f 11/2/1 44/15/1 140/15/1
f 13/22/1 46/29/1 142/29/1
f 20/4/1 53/16/1 149/16/1
f 22/23/1 55/30/1 151/30/1
f 29/6/1 62/17/1 158/17/1
f 31/24/1 64/31/1 160/31/1
f 7/8/1 40/18/1 136/18/1
f 9/25/1 42/1/1 138/1/1
f 16/10/1 49/19/1 145/19/1
f 18/26/1 51/3/1 147/3/1
f 25/12/1 58/20/1 154/20/1
f 27/27/1 60/5/1 156/5/1
f 3/14/1 36/21/1 132/21/1
f 10/1/1 43/2/1 139/2/1
f 5/28/1 38/7/1 134/7/1
f 12/15/1 45/22/1 141/22/1
f 144/10/34 208/10/34 175/9/34
f 130/33/35 194/33/35 192/31/35
f 146/26/36 210/26/36 177/19/36
f 153/12/37 217/12/37 184/11/37
f 122/20/38 155/27/38 219/27/38
f 97/13/39 131/14/39 195/14/39
f 100/21/40 133/28/40 197/28/40
f 140/15/41 204/15/41 171/2/41
f 142/29/42 206/29/42 173/22/42
f 116/4/43 149/16/43 213/16/43
f 118/23/44 151/30/44 215/30/44
f 158/17/45 222/17/45 189/6/45
f 160/31/46 224/31/46 191/24/46
f 136/18/47 200/18/47 167/8/47
f 138/1/48 202/1/48 169/25/48
f 145/19/49 209/19/49 176/10/49
f 147/3/50 211/3/50 178/26/50
f 154/20/51 218/20/51 185/12/51
f 156/5/52 220/5/52 187/27/52
f 132/21/53 196/21/53 163/14/53
f 139/2/54 203/2/54 170/1/54
f 134/7/55 198/7/55 165/28/55
f 108/15/56 141/22/56 205/22/56
f 148/4/57 212/4/57 179/3/57
f 110/29/58 143/9/58 207/9/58
f 150/23/59 214/23/59 181/16/59
f 124/5/60 157/6/60 221/6/60
f 152/11/61 216/11/61 183/30/61
f 126/17/62 159/24/62 223/24/62
f 102/7/63 135/8/63 199/8/63
f 129/13/64 193/13/64 162/32/64
f 137/25/65 201/25/65 168/18/65
