# Blender 4.4.1
# www.blender.org
mtllib Untitled.mtl
o Cube.001
v 1.788300 0.127300 -2.944300
v 2.240000 0.127300 -2.944300
v 2.240000 0.127300 -2.479300
v 2.180800 0.128300 -2.871200
v -1.820300 0.111400 -2.927600
v -2.214000 0.110800 -2.891600
v 2.199200 0.111000 2.906800
v 2.224100 0.111400 2.513100
v -2.240000 0.111400 -2.927600
v -2.240000 0.111400 -2.496100
v -2.240000 0.111400 2.513100
v -2.214000 0.111400 2.906800
v 2.224100 0.111400 2.944300
v 1.804300 0.111400 2.944300
v -1.820300 0.111400 2.944300
v -2.240000 0.111400 2.944300
v 1.796166 2.127281 -2.947709
v 2.247866 2.127281 -2.947709
v 2.247866 2.127281 -2.482709
v 2.188666 2.128282 -2.874609
v -1.812434 2.111382 -2.931009
v -2.206134 2.110781 -2.895009
v 2.207066 2.110982 2.903391
v 2.231966 2.111382 2.509691
v -2.232134 2.111382 -2.931009
v -2.232134 2.111382 -2.499509
v -2.232134 2.111382 2.509691
v -2.206134 2.111382 2.903391
v 2.231966 2.111382 2.940891
v 1.812166 2.111382 2.940891
v -1.812434 2.111382 2.940891
v -2.232134 2.111382 2.940891
vn -0.7084 0.0016 -0.7058
vn -1.0000 0.0039 -0.0000
vn -0.7058 0.0016 -0.7084
vn -0.0000 0.0017 1.0000
vn 0.7066 -0.0040 -0.7076
vn -0.0023 -0.0017 -1.0000
vn 0.7076 -0.0040 -0.7066
vn 0.7058 -0.0016 0.7084
vn 0.7084 -0.0016 0.7058
vn -0.7076 0.0040 0.7066
vn -0.7066 0.0040 0.7076
vn 1.0000 -0.0039 0.0016
vn -0.7063 -0.0012 -0.7079
vn 0.7069 -0.0046 -0.7073
vn 0.7073 -0.0034 -0.7069
vn -0.7101 0.0043 -0.7040
vn 0.7062 -0.0027 0.7080
vn -0.7069 0.0005 0.7073
vn -0.7083 0.0074 0.7059
vn 0.7047 -0.0004 0.7095
vn -0.0016 1.0000 0.0012
vn -0.0000 1.0000 -0.0000
vn -0.0020 1.0000 0.0005
vn -0.0001 1.0000 0.0016
vn -0.0002 1.0000 0.0016
vn -0.0016 1.0000 -0.0001
vn -0.0003 1.0000 0.0002
vn 0.0001 1.0000 0.0011
vt 0.625000 0.500000
vt 0.625000 0.750000
vt 0.625000 0.250000
vt 0.497300 0.443000
vt 0.673900 0.266300
vt 0.674200 0.266500
vt 0.497400 0.470900
vt 0.498000 0.901500
vt 0.639800 0.521700
vt 0.625000 0.765500
vt 0.000000 0.000000
vt 0.657800 0.539300
vt 0.875000 0.500000
vt 0.640500 0.520800
vt 0.640500 0.521700
s 1
f 9/1/1 10/2/2 26/2/2 25/1/3
f 15/3/4 14/3/4 30/3/4 31/3/4
f 2/1/5 1/3/6 17/3/6 18/1/7
f 14/3/4 13/1/8 29/1/9 30/3/4
f 11/2/2 16/1/10 32/1/11 27/2/2
f 8/2/12 3/2/12 19/2/12 24/2/12
f 5/3/6 9/1/1 25/1/3 21/3/6
f 7/4/13 12/5/14 28/5/15 23/4/16
f 6/6/17 4/7/18 20/7/19 22/6/20
f 4/8/18 7/9/13 23/9/16 20/8/19
f 12/10/14 6/10/17 22/10/20 28/10/15
f 16/1/10 15/3/4 31/3/4 32/1/11
f 3/2/12 2/1/5 18/1/7 19/2/12
f 13/1/8 8/2/12 24/2/12 29/1/9
f 1/3/6 5/3/6 21/3/6 17/3/6
f 10/11/2 11/11/2 27/11/2 26/11/2
f 20/12/21 18/1/22 17/13/23
f 21/3/23 20/7/21 17/3/23
f 20/8/21 24/2/24 19/2/25
f 22/14/26 25/1/22 26/2/22
f 26/2/22 28/10/27 22/10/26
f 23/9/28 29/1/22 24/2/24
f 28/5/27 30/3/22 23/4/28
f 28/15/27 32/1/22 31/13/22
f 20/12/21 19/2/25 18/1/22
f 21/3/23 22/6/26 20/7/21
f 20/8/21 23/9/28 24/2/24
f 22/14/26 21/13/23 25/1/22
f 26/2/22 27/2/22 28/10/27
f 23/9/28 30/13/22 29/1/22
f 28/5/27 31/3/22 30/3/22
f 28/15/27 27/2/22 32/1/22
