# Blender 4.5.3 LTS
# www.blender.org
mtllib table_circle.mtl
o Base.001
v -2.444614 0.014442 -2.488534
v -2.520935 0.014442 -2.412213
v -2.654913 0.014442 -2.278236
v -2.362243 0.014442 -2.570906
v -2.275016 0.014442 -2.658132
v 2.455148 0.014442 2.487965
v 2.531468 0.014442 2.411645
v 2.665447 0.014442 2.277667
v 2.372777 0.014442 2.570337
v 2.285550 0.014442 2.657563
v 3.499243 0.014442 0.081259
v 3.499243 0.014442 0.270733
v 3.499243 0.014442 -0.028842
v 3.499243 0.014442 -0.266522
v -3.489539 0.014442 -0.080349
v -3.489539 0.014442 -0.269822
v -3.489539 0.014442 0.029752
v -3.489539 0.014442 0.267432
v 0.086165 0.014442 -3.494336
v 0.275639 0.014442 -3.494336
v -0.023936 0.014442 -3.494336
v -0.261616 0.014442 -3.494336
v -0.075443 0.014442 3.494446
v -0.264916 0.014442 3.494446
v 0.034658 0.014442 3.494446
v 0.272339 0.014442 3.494446
v 2.533236 0.014442 -2.413409
v 2.667214 0.014442 -2.279431
v 2.455383 0.014442 -2.491262
v 2.287317 0.014442 -2.659328
v -2.522856 0.014442 2.414130
v -2.656834 0.014442 2.280152
v -2.445003 0.014442 2.491983
v -2.276937 0.014442 2.660049
v -2.543682 0.014442 -2.589173
v -2.623089 0.014442 -2.509766
v -2.762485 0.014442 -2.370371
v -2.457979 0.014442 -2.674876
v -2.367225 0.014442 -2.765630
v 2.554223 0.014442 2.588571
v 2.633630 0.014442 2.509165
v 2.773026 0.014442 2.369769
v 2.468521 0.014442 2.674274
v 2.377767 0.014442 2.765028
v 3.640541 0.014442 0.084540
v 3.640540 0.014442 0.281676
v 3.640541 0.014442 -0.030013
v 3.640541 0.014442 -0.277305
v -3.630863 0.014442 -0.083603
v -3.630863 0.014442 -0.280739
v -3.630863 0.014442 0.030950
v -3.630863 0.014442 0.278242
v 0.089441 0.014442 -3.635649
v 0.286576 0.014442 -3.635649
v -0.025113 0.014442 -3.635649
v -0.272405 0.014442 -3.635649
v -0.078703 0.014442 3.635754
v -0.275838 0.014442 3.635754
v 0.035850 0.014442 3.635754
v 0.283143 0.014442 3.635754
v 2.635469 0.014442 -2.511010
v 2.774865 0.014442 -2.371614
v 2.554467 0.014442 -2.592012
v 2.379605 0.014442 -2.766874
v -2.625087 0.014442 2.511751
v -2.764483 0.014442 2.372355
v -2.544086 0.014442 2.592752
v -2.369224 0.014442 2.767614
v -2.444614 0.158840 -2.488534
v -2.520935 0.158840 -2.412213
v -2.654913 0.158840 -2.278236
v -2.362243 0.158840 -2.570906
v -2.275016 0.158840 -2.658132
v 2.455148 0.158840 2.487965
v 2.531468 0.158840 2.411645
v 2.665447 0.158840 2.277667
v 2.372777 0.158840 2.570337
v 2.285550 0.158840 2.657563
v 3.499243 0.158840 0.270733
v 3.499243 0.158840 0.081259
v 3.499243 0.158840 -0.028842
v 3.499243 0.158840 -0.266522
v -3.489539 0.158840 -0.269822
v -3.489539 0.158840 -0.080349
v -3.489539 0.158840 0.029752
v -3.489539 0.158840 0.267432
v 0.275639 0.158840 -3.494336
v 0.086165 0.158840 -3.494336
v -0.023936 0.158840 -3.494336
v -0.261616 0.158840 -3.494336
v -0.264916 0.158840 3.494446
v -0.075443 0.158840 3.494446
v 0.034658 0.158840 3.494446
v 0.272339 0.158840 3.494446
v 2.667214 0.158840 -2.279431
v 2.533236 0.158840 -2.413409
v 2.455383 0.158840 -2.491262
v 2.287317 0.158840 -2.659328
v -2.656834 0.158840 2.280152
v -2.522856 0.158840 2.414130
v -2.445003 0.158840 2.491983
v -2.276937 0.158840 2.660049
v -2.543682 0.158840 -2.589173
v -2.623089 0.158840 -2.509766
v -2.762485 0.158840 -2.370371
v -2.457979 0.158840 -2.674876
v -2.367225 0.158840 -2.765630
v 2.554223 0.158840 2.588571
v 2.633630 0.158840 2.509165
v 2.773026 0.158840 2.369769
v 2.468521 0.158840 2.674274
v 2.377767 0.158840 2.765028
v 3.640540 0.158840 0.281676
v 3.640541 0.158840 0.084540
v 3.640541 0.158840 -0.030013
v 3.640541 0.158840 -0.277305
v -3.630863 0.158840 -0.280739
v -3.630863 0.158840 -0.083603
v -3.630863 0.158840 0.030950
v -3.630863 0.158840 0.278242
v 0.286576 0.158840 -3.635649
v 0.089441 0.158840 -3.635649
v -0.025113 0.158840 -3.635649
v -0.272405 0.158840 -3.635649
v -0.275838 0.158840 3.635754
v -0.078703 0.158840 3.635754
v 0.035850 0.158840 3.635754
v 0.283143 0.158840 3.635754
v 2.774865 0.158840 -2.371614
v 2.635469 0.158840 -2.511010
v 2.554467 0.158840 -2.592012
v 2.379605 0.158840 -2.766874
v -2.764483 0.158840 2.372355
v -2.625087 0.158840 2.511751
v -2.544086 0.158840 2.592752
v -2.369224 0.158840 2.767614
vn 0.9240 -0.0000 -0.3823
vn 0.7071 -0.0000 0.7071
vn 0.9235 -0.0000 0.3837
vn 0.3839 -0.0000 0.9234
vn -0.9242 -0.0000 0.3820
vn 1.0000 -0.0000 -0.0000
vn -1.0000 -0.0000 -0.0000
vn -0.3831 -0.0000 0.9237
vn 0.7071 -0.0000 -0.7071
vn -0.9240 -0.0000 0.3823
vn -0.7071 -0.0000 -0.7071
vn -0.9234 -0.0000 -0.3837
vn -0.3836 -0.0000 -0.9235
vn 0.9234 -0.0000 0.3837
vn 0.3834 -0.0000 -0.9236
vn -0.0000 -0.0000 -1.0000
vn 0.9242 -0.0000 -0.3820
vn -0.0000 -0.0000 1.0000
vn -0.9235 -0.0000 -0.3837
vn -0.7071 -0.0000 0.7071
vn -0.0000 1.0000 -0.0000
vn 0.3831 -0.0000 -0.9237
vn -0.3834 -0.0000 0.9236
vn -0.3839 -0.0000 -0.9234
vn 0.3836 -0.0000 0.9235
vt 0.656592 0.073264
vt 0.377187 0.057364
vt 0.373831 0.038596
vt 0.661489 0.054774
vt 0.984270 0.662139
vt 0.979902 0.681994
vt 0.959145 0.676043
vt 0.963962 0.659242
vt 0.953089 0.742704
vt 0.740935 0.966229
vt 0.728665 0.948993
vt 0.935816 0.731769
vt 0.973840 0.700030
vt 0.953594 0.692479
vt 0.972002 0.360452
vt 0.952593 0.364151
vt 0.354902 0.939354
vt 0.644494 0.941908
vt 0.648599 0.960932
vt 0.350664 0.959062
vt 0.334581 0.071909
vt 0.312869 0.081126
vt 0.302677 0.064471
vt 0.327351 0.053621
vt 0.967101 0.716110
vt 0.947560 0.707374
vt 0.672725 0.931236
vt 0.680314 0.949448
vt 0.751349 0.055730
vt 0.945138 0.282921
vt 0.927988 0.293124
vt 0.739026 0.071777
vt 0.717848 0.103351
vt 0.690609 0.089400
vt 0.699655 0.071989
vt 0.728739 0.088332
vt 0.366143 0.000000
vt 0.673531 0.015978
vt 0.668553 0.036275
vt 0.369089 0.020410
vt 0.014595 0.320757
vt 0.020798 0.300619
vt 0.041774 0.308382
vt 0.035605 0.325398
vt 0.686169 0.925198
vt 0.694617 0.943408
vt 0.053108 0.240581
vt 0.282887 0.028345
vt 0.294144 0.046276
vt 0.069907 0.252951
vt 0.677669 0.082942
vt 0.686036 0.065124
vt 0.028469 0.282582
vt 0.048660 0.291902
vt 0.000000 0.642854
vt 0.021407 0.639359
vt 0.921950 0.664543
vt 0.927339 0.650039
vt 0.946018 0.654025
vt 0.940590 0.670640
vt 0.102380 0.273453
vt 0.086387 0.262538
vt 0.036656 0.266635
vt 0.055976 0.277103
vt 0.257083 0.963062
vt 0.032084 0.729778
vt 0.050493 0.717608
vt 0.269442 0.945402
vt 0.902281 0.330539
vt 0.895106 0.308799
vt 0.911399 0.300077
vt 0.920332 0.324198
vt 0.658379 1.000000
vt 0.340227 1.000000
vt 0.344274 0.978688
vt 0.654293 0.979254
vt 0.061220 0.630715
vt 0.070666 0.660806
vt 0.051704 0.667698
vt 0.041580 0.634055
vt 0.708401 0.914919
vt 0.903057 0.713997
vt 0.919203 0.723518
vt 0.719231 0.931237
vt 0.719280 0.035106
vt 0.708953 0.054325
vt 0.916677 0.678963
vt 0.935056 0.685726
vt 0.703070 0.026877
vt 0.693999 0.047033
vt 0.076222 0.674588
vt 0.057368 0.682640
vt 0.911734 0.692340
vt 0.929657 0.699539
vt 0.054040 0.332062
vt 0.703323 0.961505
vt 0.031914 0.674646
vt 0.060520 0.315210
vt 0.309744 0.943592
vt 0.324247 0.949785
vt 0.317134 0.968959
vt 0.301235 0.962248
vt 0.341756 0.048468
vt 0.319778 0.035301
vt 0.335479 0.029596
vt 0.069340 0.708307
vt 0.038316 0.691018
vt 0.278892 0.928237
vt 0.073621 0.286482
vt 0.067113 0.300156
vt 0.924916 0.338242
vt 0.937846 0.317413
vt 0.943143 0.332336
vt 0.687761 0.968182
vt 0.933966 0.369572
vt 0.906685 0.344182
vt 0.712883 0.981899
vt 0.091141 0.295260
vt 0.085161 0.308253
vt 0.695733 0.988966
vt 0.915413 0.372983
vt 0.331497 0.930811
vt 0.311539 0.014627
vt 0.328830 0.008690
vt 0.348093 0.066955
vt 0.016829 0.700221
vt 0.079137 0.322371
vt 0.010063 0.682171
vt 0.086663 0.697318
vt 0.290025 0.911748
vt 0.957324 0.309854
vt 0.073507 0.337143
vt 0.962811 0.325926
vt 0.317732 0.925321
vt 0.308887 0.990404
vt 0.291576 0.982783
s 0
f 32/1/1 18/2/1 86/3/1 99/4/1
f 44/5/2 43/6/2 111/7/2 112/8/2
f 42/9/3 46/10/3 113/11/3 110/12/3
f 43/6/2 40/13/2 108/14/2 111/7/2
f 60/15/4 44/5/4 112/8/4 128/16/4
f 28/17/5 14/18/5 82/19/5 95/20/5
f 15/21/6 16/22/6 83/23/6 84/24/6
f 41/25/2 42/9/2 110/12/2 109/26/2
f 14/18/7 13/27/7 81/28/7 82/19/7
f 68/29/8 58/30/8 125/31/8 136/32/8
f 34/33/9 33/34/9 101/35/9 102/36/9
f 40/13/2 41/25/2 109/26/2 108/14/2
f 52/37/10 66/38/10 133/39/10 120/40/10
f 39/41/11 38/42/11 106/43/11 107/44/11
f 13/27/7 11/45/7 80/46/7 81/28/7
f 37/47/12 50/48/12 117/49/12 105/50/12
f 33/34/9 31/51/9 100/52/9 101/35/9
f 38/42/11 35/53/11 103/54/11 106/43/11
f 56/55/13 39/41/13 107/44/13 124/56/13
f 9/57/11 10/58/11 78/59/11 77/60/11
f 16/22/14 3/61/14 71/62/14 83/23/14
f 36/63/11 37/47/11 105/50/11 104/64/11
f 64/65/15 54/66/15 121/67/15 132/68/15
f 35/53/11 36/63/11 104/64/11 103/54/11
f 23/69/16 24/70/16 91/71/16 92/72/16
f 48/73/17 62/74/17 129/75/17 116/76/17
f 22/77/18 21/78/18 89/79/18 90/80/18
f 12/81/19 8/82/19 76/83/19 79/84/19
f 67/85/20 68/29/20 136/32/20 135/86/20
f 6/87/11 9/57/11 77/60/11 74/88/11
f 65/89/20 67/85/20 135/86/20 134/90/20
f 21/78/18 19/91/18 88/92/18 89/79/18
f 66/38/20 65/89/20 134/90/20 133/39/20
f 8/82/11 7/93/11 75/94/11 76/83/11
f 102/36/21 101/35/21 135/86/21 136/32/21
f 73/95/21 90/80/21 124/56/21 107/44/21
f 80/46/21 79/84/21 113/11/21 114/96/21
f 75/94/21 74/88/21 108/14/21 109/26/21
f 90/80/21 89/79/21 123/97/21 124/56/21
f 72/98/21 73/95/21 107/44/21 106/43/21
f 97/99/21 96/100/21 130/101/21 131/102/21
f 100/52/21 99/4/21 133/39/21 134/90/21
f 79/84/21 76/83/21 110/12/21 113/11/21
f 85/103/21 84/24/21 118/104/21 119/105/21
f 88/92/21 87/106/21 121/67/21 122/107/21
f 98/108/21 97/99/21 131/102/21 132/68/21
f 76/83/21 75/94/21 109/26/21 110/12/21
f 91/71/21 102/36/21 136/32/21 125/31/21
f 70/109/21 69/110/21 103/54/21 104/64/21
f 86/3/21 85/103/21 119/105/21 120/40/21
f 83/23/21 71/62/21 105/50/21 117/49/21
f 74/88/21 77/60/21 111/7/21 108/14/21
f 93/111/21 92/72/21 126/112/21 127/113/21
f 87/106/21 98/108/21 132/68/21 121/67/21
f 96/100/21 95/20/21 129/75/21 130/101/21
f 81/28/21 80/46/21 114/96/21 115/114/21
f 84/24/21 83/23/21 117/49/21 118/104/21
f 94/115/21 93/111/21 127/113/21 128/16/21
f 71/62/21 70/109/21 104/64/21 105/50/21
f 77/60/21 78/59/21 112/8/21 111/7/21
f 82/19/21 81/28/21 115/114/21 116/76/21
f 78/59/21 94/115/21 128/16/21 112/8/21
f 95/20/21 82/19/21 116/76/21 129/75/21
f 101/35/21 100/52/21 134/90/21 135/86/21
f 69/110/21 72/98/21 106/43/21 103/54/21
f 89/79/21 88/92/21 122/107/21 123/97/21
f 99/4/21 86/3/21 120/40/21 133/39/21
f 92/72/21 91/71/21 125/31/21 126/112/21
f 25/116/16 23/69/16 92/72/16 93/111/16
f 46/10/6 45/117/6 114/96/6 113/11/6
f 2/118/2 1/119/2 69/110/2 70/109/2
f 45/117/6 47/120/6 115/114/6 114/96/6
f 26/121/16 25/116/16 93/111/16 94/115/16
f 47/120/6 48/73/6 116/76/6 115/114/6
f 27/122/20 28/17/20 95/20/20 96/100/20
f 50/48/7 49/123/7 118/104/7 117/49/7
f 49/123/7 51/124/7 119/105/7 118/104/7
f 3/61/2 2/118/2 70/109/2 71/62/2
f 51/124/7 52/37/7 120/40/7 119/105/7
f 24/70/22 34/33/22 102/36/22 91/71/22
f 17/125/6 15/21/6 84/24/6 85/103/6
f 54/66/16 53/126/16 122/107/16 121/67/16
f 1/119/2 4/127/2 72/98/2 69/110/2
f 53/126/16 55/128/16 123/97/16 122/107/16
f 18/2/6 17/125/6 85/103/6 86/3/6
f 20/129/23 30/130/23 98/108/23 87/106/23
f 19/91/18 20/129/18 87/106/18 88/92/18
f 55/128/16 56/55/16 124/56/16 123/97/16
f 58/30/18 57/131/18 126/112/18 125/31/18
f 4/127/2 5/132/2 73/95/2 72/98/2
f 57/131/18 59/133/18 127/113/18 126/112/18
f 29/134/20 27/122/20 96/100/20 97/99/20
f 7/93/11 6/87/11 74/88/11 75/94/11
f 59/133/18 60/15/18 128/16/18 127/113/18
f 10/58/24 26/121/24 94/115/24 78/59/24
f 62/74/9 61/135/9 130/101/9 129/75/9
f 30/130/20 29/134/20 97/99/20 98/108/20
f 31/51/9 32/1/9 99/4/9 100/52/9
f 61/135/9 63/136/9 131/102/9 130/101/9
f 11/45/7 12/81/7 79/84/7 80/46/7
f 5/132/25 22/77/25 90/80/25 73/95/25
f 63/136/9 64/65/9 132/68/9 131/102/9
