# Blender 5.0.0
# www.blender.org
mtllib ice_cube.mtl
o Cone
v 0.900408 1.000000 -0.900408
v 1.000000 0.900408 -0.900408
v 0.900408 0.900408 -1.000000
v 0.900408 -1.000000 -0.900408
v 0.900408 -0.900408 -1.000000
v 1.000000 -0.900408 -0.900408
v 0.900408 1.000000 0.900408
v 0.900408 0.900408 1.000000
v 1.000000 0.900408 0.900408
v 0.900408 -1.000000 0.900408
v 1.000000 -0.900408 0.900408
v 0.900408 -0.900408 1.000000
v -0.900408 1.000000 -0.900408
v -0.900408 0.900408 -1.000000
v -1.000000 0.900408 -0.900408
v -0.900408 -1.000000 -0.900408
v -1.000000 -0.900408 -0.900408
v -0.900408 -0.900408 -1.000000
v -0.900408 0.900408 1.000000
v -0.900408 1.000000 0.900408
v -1.000000 0.900408 0.900408
v -0.900408 -1.000000 0.900408
v -0.900408 -0.900408 1.000000
v -1.000000 -0.900408 0.900408
vn 0.5774 0.5774 -0.5774
vn 0.5774 -0.5774 -0.5774
vn 0.5774 0.5774 0.5774
vn 0.5774 -0.5774 0.5774
vn -0.5774 0.5774 -0.5774
vn -0.5774 -0.5774 -0.5774
vn -0.5774 0.5774 0.5774
vn -0.5774 -0.5774 0.5774
vn -0.0000 0.7071 0.7071
vn -0.0000 -0.7071 0.7071
vn 0.7071 -0.0000 0.7071
vn 0.7071 0.7071 -0.0000
vn 0.7071 -0.7071 -0.0000
vn 0.7071 -0.0000 -0.7071
vn -0.0000 0.7071 -0.7071
vn -0.0000 -0.7071 -0.7071
vn -0.7071 -0.0000 -0.7071
vn -0.7071 0.7071 -0.0000
vn -0.7071 -0.0000 0.7071
vn -0.7071 -0.7071 -0.0000
vn 1.0000 -0.0000 -0.0000
vn -0.0000 -0.0000 -1.0000
vn -0.0000 1.0000 -0.0000
vn -0.0000 -1.0000 -0.0000
vn -0.0000 -0.0000 1.0000
vn -1.0000 -0.0000 -0.0000
vt 0.387449 0.012449
vt 0.375000 0.012449
vt 0.387449 0.000000
vt 0.612551 0.262449
vt 0.612551 0.250000
vt 0.625000 0.262449
vt 0.387449 0.237551
vt 0.387449 0.250000
vt 0.375000 0.237551
vt 0.612551 0.487551
vt 0.625000 0.487551
vt 0.612551 0.500000
vt 0.612551 0.012449
vt 0.612551 0.000000
vt 0.625000 0.012449
vt 0.387449 0.262449
vt 0.375000 0.262449
vt 0.612551 0.237551
vt 0.625000 0.237551
vt 0.387449 0.487551
vt 0.387449 0.500000
vt 0.375000 0.487551
vt 0.612551 0.512449
vt 0.387449 0.512449
vt 0.612551 0.762449
vt 0.387449 0.762449
vt 0.387449 0.750000
vt 0.612551 0.750000
vt 0.362551 0.512449
vt 0.137449 0.512449
vt 0.137449 0.500000
vt 0.362551 0.500000
vt 0.387449 0.737551
vt 0.612551 0.737551
vt 0.612551 0.987551
vt 0.387449 0.987551
vt 0.362551 0.737551
vt 0.137449 0.737551
vt 0.637449 0.512449
vt 0.862551 0.512449
vt 0.862551 0.737551
vt 0.637449 0.737551
s 0
usemtl Material.001
f 1/1/1 2/2/1 3/3/1
f 4/4/2 5/5/2 6/6/2
f 7/7/3 8/8/3 9/9/3
f 10/10/4 11/11/4 12/12/4
f 13/13/5 14/14/5 15/15/5
f 16/16/6 17/17/6 18/8/6
f 19/5/7 20/18/7 21/19/7
f 22/20/8 23/21/8 24/22/8
f 7/7/9 20/18/9 19/5/9 8/8/9
f 22/20/10 10/10/10 12/12/10 23/21/10
f 8/23/11 12/24/11 11/21/11 9/12/11
f 1/1/12 7/7/12 9/9/12 2/2/12
f 10/10/13 4/4/13 6/6/13 11/11/13
f 2/25/14 6/26/14 5/27/14 3/28/14
f 13/13/15 1/1/15 3/3/15 14/14/15
f 4/4/16 16/16/16 18/8/16 5/5/16
f 14/29/17 18/30/17 17/31/17 15/32/17
f 20/18/18 13/13/18 15/15/18 21/19/18
f 23/33/19 19/34/19 21/28/19 24/27/19
f 16/16/20 22/20/20 24/22/20 17/17/20
f 6/26/21 2/25/21 9/35/21 11/36/21
f 18/30/22 14/29/22 3/37/22 5/38/22
f 1/1/23 13/13/23 20/18/23 7/7/23
f 16/16/24 4/4/24 10/10/24 22/20/24
f 12/24/25 8/23/25 19/34/25 23/33/25
f 24/39/26 21/40/26 15/41/26 17/42/26
