# Blender 5.1.1
# www.blender.org
mtllib star2.mtl
o Circle.001
v 0.000000 0.000000 -0.818572
v -0.922184 0.000000 -1.269277
v -0.778508 0.000000 -0.252953
v -1.492125 0.000000 0.484821
v -0.481144 0.000000 0.662238
v 0.000000 0.000000 1.568913
v 0.481144 0.000000 0.662238
v 1.492125 0.000000 0.484821
v 0.778508 0.000000 -0.252953
v 0.922184 0.000000 -1.269277
v 0.000000 0.335930 0.000000
v 0.000000 -0.335930 0.000000
vn -0.2986 0.9096 -0.2889
vn -0.1824 0.9096 -0.3733
vn 0.0718 0.9096 0.4092
vn -0.0718 0.9096 0.4092
vn 0.1824 0.9096 -0.3733
vn 0.2986 0.9096 -0.2889
vn -0.3670 0.9096 0.1948
vn -0.4114 0.9096 0.0582
vn 0.4114 0.9096 0.0582
vn 0.3670 0.9096 0.1948
vn -0.2986 -0.9096 -0.2889
vn -0.1824 -0.9096 -0.3733
vn 0.0718 -0.9096 0.4092
vn -0.0718 -0.9096 0.4092
vn 0.1824 -0.9096 -0.3733
vn 0.2986 -0.9096 -0.2889
vn -0.3670 -0.9096 0.1948
vn -0.4114 -0.9096 0.0582
vn 0.4114 -0.9096 0.0582
vn 0.3670 -0.9096 0.1948
vt 0.000000 0.000000
s 0
f 3/1/1 4/1/1 11/1/1
f 10/1/2 1/1/2 11/1/2
f 7/1/3 8/1/3 11/1/3
f 4/1/4 5/1/4 11/1/4
f 1/1/5 2/1/5 11/1/5
f 8/1/6 9/1/6 11/1/6
f 5/1/7 6/1/7 11/1/7
f 2/1/8 3/1/8 11/1/8
f 9/1/9 10/1/9 11/1/9
f 6/1/10 7/1/10 11/1/10
f 3/1/11 12/1/11 4/1/11
f 10/1/12 12/1/12 1/1/12
f 7/1/13 12/1/13 8/1/13
f 4/1/14 12/1/14 5/1/14
f 1/1/15 12/1/15 2/1/15
f 8/1/16 12/1/16 9/1/16
f 5/1/17 12/1/17 6/1/17
f 2/1/18 12/1/18 3/1/18
f 9/1/19 12/1/19 10/1/19
f 6/1/20 12/1/20 7/1/20
